/* XPM */
static char *collect[] = {
/* columns rows colors chars-per-pixel */
"50 50 118 2 ",
"   c #000000",
".  c #0B0901",
"X  c #0C0C0C",
"o  c #131313",
"O  c #1D1D1D",
"+  c #240103",
"@  c #2D0003",
"#  c #261E02",
"$  c #2C2302",
"%  c #302702",
"&  c #342A01",
"*  c #3A2F01",
"=  c #252525",
"-  c #2C2C2C",
";  c #302F2D",
":  c #333333",
">  c #383836",
",  c #3B3B3B",
"<  c #4D1204",
"1  c #7F1D05",
"2  c #413402",
"3  c #463802",
"4  c #493B02",
"5  c #7D2305",
"6  c #7B2D04",
"7  c #7A3604",
"8  c #7B3A03",
"9  c #534202",
"0  c #584600",
"q  c #5D4A02",
"w  c #4F4317",
"e  c #5C4E18",
"r  c #7D4203",
"t  c #7F4903",
"y  c #645102",
"u  c #705602",
"i  c #765F01",
"p  c #796201",
"a  c #796516",
"s  c #7E6913",
"d  c #7F6C1E",
"f  c #77682B",
"g  c #786929",
"h  c #756836",
"j  c #756A3F",
"k  c gray26",
"l  c #4B4B4B",
"z  c #535353",
"x  c #5B5B5B",
"c  c #756B44",
"v  c #766D4D",
"b  c #6F6A53",
"n  c #777053",
"m  c #787155",
"M  c #636363",
"N  c #6B6B6B",
"B  c #747474",
"V  c #7C7C7C",
"C  c #8B0406",
"Z  c #8B0E06",
"A  c #940706",
"S  c #9A0407",
"D  c #831605",
"F  c #891106",
"G  c #811E05",
"H  c #A40107",
"J  c #AB0007",
"K  c #AC0008",
"L  c #814E03",
"P  c #895C02",
"I  c #826601",
"U  c #8D6202",
"Y  c #816A0F",
"T  c #926A02",
"R  c #927500",
"E  c #9B7602",
"W  c #8B7310",
"Q  c #A38303",
"!  c #A88401",
"~  c #B28E02",
"^  c #B69301",
"/  c #BB9701",
"(  c #BE9A00",
")  c #C39E01",
"_  c #CBA401",
"`  c #CEA800",
"'  c #D1A701",
"]  c #D6AE00",
"[  c #DEB300",
"{  c #E2B600",
"}  c #EDBE00",
"|  c #EEC000",
" . c #F4C400",
".. c #FFCD00",
"X. c #FFD100",
"o. c #82807C",
"O. c #838383",
"+. c #8B8B8B",
"@. c #929292",
"#. c #9B9B9B",
"$. c #A09F9D",
"%. c #A2A2A2",
"&. c #ABABAB",
"*. c #B6B6B6",
"=. c #BBBBBB",
"-. c #C4C4C4",
";. c #CACACB",
":. c #D3D3D4",
">. c #DCDCDD",
",. c #E4E4E4",
"<. c #E4E5E9",
"1. c #EBEBEB",
"2. c #EFF0F3",
"3. c #F4F4F4",
"4. c #F7F7FA",
"5. c #F7F8FA",
"6. c #FEFEFE",
"7. c None",
/* pixels */
"7.7.7.7.7.7.7.7.7.7.7.7.7.7.7.7.7.7.7.7.7.7.7.7.7.7.7.7.7.7.7.7.7.7.7.7.7.7.7.7.7.7.7.7.7.7.7.7.7.7.",
"7.7.7.7.7.7.7.7.7.7.7.7.7.7.7.7.7.7.7.7.7.7.7.7.7.7.7.7.7.7.7.7.7.7.7.7.7.7.7.7.7.7.7.7.7.7.7.7.7.7.",
"7.7.7.7.7.7.7.7.7.7.7.7.7.7.7.7.7.7.7.7.7.7.7.7.7.7.7.7.7.7.7.7.7.7.7.7.7.7.7.7.7.7.7.7.7.7.7.7.7.7.",
"7.7.7.7.7.7.7.7.7.7.7.7.7.7.7.7.7.7.7.7.7.7.7.7.7.7.7.7.7.7.7.7.7.7.7.7.7.7.7.7.7.7.7.7.7.7.7.7.7.7.",
"7.7.7.7.7.7.7.7.7.7.7.7.7.7.7.7.7.7.7.7.7.7.7.7.7.7.7.7.7.7.7.7.7.7.7.7.7.7.7.7.7.7.7.7.7.7.7.7.7.7.",
"7.7.7.7.7.7.7.7.7.7.7.O = 7.7.7.7.7.7.7.7.7.7.7.7.7.7.7.7.7.7.7.7.7.7.7.7.7.l k 7.7.7.7.7.7.7.7.7.7.",
"7.7.7.7.7.7.7.7.7.7.: *.:.N 7.7.7.7.7.7.7.7.7.7.7.7.7.7.7.7.7.7.7.7.7.7.7.B 2.,.x 7.7.7.7.7.7.7.7.7.",
"7.7.7.7.7.7.7.7.7.7.N 6.6.-.7.7.7.7.7.7.7.7.7.7.7.7.7.7.7.7.7.7.7.7.7.7.7.&.6.6.O.. 7.7.7.7.7.7.7.7.",
"7.7.7.7.7.7.7.7.- B =.6.6.%.7.7.7.7.7.7.7.7.7.7.7.7.7.7.7.7.7.7.7.7.7.7.7.B 6.6.,.&.l 7.7.7.7.7.7.7.",
"7.7.7.7.7.7.7.7.O.6.6.6.6.B 7.7.7.7.7.7.7.7.7.7.7.7.7.7.7.7.7.7.7.7.7.7.7.B 5.6.6.6.&.7.7.7.7.7.7.7.",
"7.7.7.7.7.7.7.7.+.6.6.6.6.,.z 7.7.7.7.7.7.7.7.7.7.7.7.7.7.7.7.7.7.7.7.7.M 1.6.3.5.6.+.7.7.7.7.7.7.7.",
"7.7.7.7.7.7.7.7.- +.#.O.,.6.>.z 7.7.7.7.7.7.7.7.7.7.7.7.7.7.7.7.7.7.7.M ,.6.>.x N N = 7.7.7.7.7.7.7.",
"7.7.7.7.7.7.7.7.7.7.7.7.M ,.6.>.z 7.7.7.7.7.7.* 9 q 4 * 7.7.7.7.7.7.M ,.6.>.z 7.7.7.7.7.7.7.7.7.7.7.",
"7.7.7.7.7.7.7.7.7.7.7.7.7.M ,.6.>.z 7.7.% i / {  . . .{ / i $ 7.7.x ,.6.>.z 7.7.7.7.7.7.7.7.7.7.7.7.",
"7.7.7.7.7.7.7.7.7.7.7.7.7.7.x ,.6.:.; q ) .................._ 0 , >.6.>.z 7.7.7.7.7.7.7.7.7.7.7.7.7.",
"7.7.7.7.7.7.7.7.7.7.7.7.7.7.7.M ,.#.Y  .......................} Y $.>.z 7.7.7.7.7.7.7.7.7.7.7.7.7.7.",
"7.7.7.7.7.7.7.7.7.7.7.7.7.7.7.7.k s  .X.............X...X...X.X. .a , 7.7.7.7.7.7.7.7.7.7.7.7.7.7.7.",
"7.7.7.7.7.7.7.7.7.7.7.7.7.7.7.7.& ) _ ^ Q E T U P P P U T E ! ^ ` / % 7.7.7.7.7.7.7.7.7.7.7.7.7.7.7.",
"7.7.7.7.7.7.7.7.7.7.7.7.7.7.7.7.< G Z S H K K K J J J K J H S A Z G < 7.7.7.7.7.7.7.7.7.7.7.7.7.7.7.",
"7.7.7.7.7.7.7.7.7.7.7.7.7.7.7.@ S A F 1 6 7 r t L L L t r 8 6 5 D Z C + 7.7.7.7.7.7.7.7.7.7.7.7.7.7.",
"7.7.7.7.7.7.7.7.7.7.7.7.7.# 4 u E ^ _ ] [ { { [ [ { [ [ [ [ [ [ ` / ! I q & 7.7.7.7.7.7.7.7.7.7.7.7.",
"7.7.7.7.7.7.7.7.7.7.% y Q ' | ' Q W g f h c c n n n n n v c c h f d W ~ } { ~ p 2 7.7.7.7.7.7.7.7.7.",
"7.7.7.7.7.7.7.7.. q )  .X.X./ b &.;.>.1.3.4.4.5.5.6.5.6.5.4.4.2.<.>.;.O.Q ....} / y . 7.7.7.7.7.7.7.",
"7.7.7.7.7.7.7.7.7.$ 4 q p R e :.6.6.5.;.#.&.,.6.6.6.6.6.<.&.#.-.5.6.6.:.w i q 3 % 7.7.7.7.7.7.7.7.7.",
"7.7.7.7.7.7.7.7.7.7.7.7.7.7.= :.6.3.V o     , ;.6.6.6.;.,     o V 4.6.;.O 7.7.7.7.7.7.7.7.7.7.7.7.7.",
"7.7.7.7.7.7.7.7.7.7.7.7.7.7.7.-.6.&.X         l 3.6.3.l         . &.6.*.7.7.7.7.7.7.7.7.7.7.7.7.7.7.",
"7.7.7.7.7.7.7.7.7.7.7.7.7.7.7.%.6.N           o :.6.:.o           N 6.@.7.7.7.7.7.7.7.7.7.7.7.7.7.7.",
"7.7.7.7.7.7.7.7.7.7.7.7.7.7.7.N 5.x           X ;.6.-.X           x 3.x 7.7.7.7.7.7.7.7.7.7.7.7.7.7.",
"7.7.7.7.7.7.7.7.7.7.7.7.7.7.7.- :.@.          - 1.6.1.:           @.-.O 7.7.7.7.7.7.7.7.7.7.7.7.7.7.",
"7.7.7.7.7.7.7.7.7.7.7.7.7.7.7.  N >.l       o %.5.1.5.%.o       l >.z 7.7.7.7.7.7.7.7.7.7.7.7.7.7.7.",
"7.7.7.7.7.7.7.7.7.7.7.7.7.7.7.V O.$.,.+.z M *.6.+.- +.6.=.M z +.,.@.N > 7.7.7.7.7.7.7.7.7.7.7.7.7.7.",
"7.7.7.7.7.7.7.7.7.7.7.7.7.7.V 3.2.M #.5.6.6.6.3.k   k 3.6.6.6.5.#.V 3.=.: 7.7.7.7.7.7.7.7.7.7.7.7.7.",
"7.7.7.7.7.7.7.7.7.7.7.7.7.V 2.6.-., o V ,.6.6.6.%.k %.6.6.6.,.V o V 5.6.=.: 7.7.7.7.7.7.7.7.7.7.7.7.",
"7.7.7.7.7.7.7.7.7.7.7.7.V 3.6.-., 7.7.7.k +.:.3.6.5.6.3.>.+., 7.7.7.+.5.6.*.- 7.7.7.7.7.7.7.7.7.7.7.",
"7.7.7.7.7.7.7.7.: N l V 3.6.-.k 7.7.7.7.7.l x N V O.V N M x 7.7.7.7.o @.5.6.*.l B z 7.7.7.7.7.7.7.7.",
"7.7.7.7.7.7.7.= =.6.3.4.6.;., 7.7.7.7.7.o x x #.N +.N @.M B O 7.7.7.7.o @.5.6.3.6.1.x 7.7.7.7.7.7.7.",
"7.7.7.7.7.7.7., ,.6.6.6.>., 7.7.7.7.7.7.x =.O.#.x #.B +.N -.x 7.7.7.7.7.o &.6.6.6.6.B 7.7.7.7.7.7.7.",
"7.7.7.7.7.7.7.7.V -.3.6.,., 7.7.7.7.7.7., B &.;.@.1.*.#.O.B > 7.7.7.7.7.7.&.6.6.;.#.- 7.7.7.7.7.7.7.",
"7.7.7.7.7.7.7.7.7.O -.6.6.N 7.7.7.7.7.7.> &.&.@.O.@.+.O.$.*.> 7.7.7.7.7.: >.6.3.z 7.7.7.7.7.7.7.7.7.",
"7.7.7.7.7.7.7.7.7.7.@.5.>.l 7.7.7.7.7.7.7.#.6.6.6.5.5.6.6.&.7.7.7.7.7.7.7.&.5.-.- 7.7.7.7.7.7.7.7.7.",
"7.7.7.7.7.7.7.7.7.7.= x , 7.7.7.7.7.7.7.7.= %.3.6.6.6.5.=., 7.7.7.7.7.7.7.7.x > 7.7.7.7.7.7.7.7.7.7.",
"7.7.7.7.7.7.7.7.7.7.7.7.7.7.7.7.7.7.7.7.7.7.7.x @.&.%.B - 7.7.7.7.7.7.7.7.7.7.7.7.7.7.7.7.7.7.7.7.7.",
"7.7.7.7.7.7.7.7.7.7.7.7.7.7.7.7.7.7.7.7.7.7.7.7.7.7.7.7.7.7.7.7.7.7.7.7.7.7.7.7.7.7.7.7.7.7.7.7.7.7.",
"7.7.7.7.7.7.7.7.7.7.7.7.7.7.7.7.7.7.7.7.7.7.7.7.7.7.7.7.7.7.7.7.7.7.7.7.7.7.7.7.7.7.7.7.7.7.7.7.7.7.",
"7.7.7.7.7.7.7.7.7.7.7.7.7.7.7.7.7.7.7.7.7.7.7.7.7.7.7.7.7.7.7.7.7.7.7.7.7.7.7.7.7.7.7.7.7.7.7.7.7.7.",
"7.7.7.7.7.7.7.7.7.7.7.7.7.7.7.7.7.7.7.7.7.7.7.7.7.7.7.7.7.7.7.7.7.7.7.7.7.7.7.7.7.7.7.7.7.7.7.7.7.7.",
"7.7.7.7.7.7.7.7.7.7.7.7.7.7.7.7.7.7.7.7.7.7.7.7.7.7.7.7.7.7.7.7.7.7.7.7.7.7.7.7.7.7.7.7.7.7.7.7.7.7.",
"7.7.7.7.7.7.7.7.7.7.7.7.7.7.7.7.7.7.7.7.7.7.7.7.7.7.7.7.7.7.7.7.7.7.7.7.7.7.7.7.7.7.7.7.7.7.7.7.7.7.",
"7.7.7.7.7.7.7.7.7.7.7.7.7.7.7.7.7.7.7.7.7.7.7.7.7.7.7.7.7.7.7.7.7.7.7.7.7.7.7.7.7.7.7.7.7.7.7.7.7.7.",
"7.7.7.7.7.7.7.7.7.7.7.7.7.7.7.7.7.7.7.7.7.7.7.7.7.7.7.7.7.7.7.7.7.7.7.7.7.7.7.7.7.7.7.7.7.7.7.7.7.7."
};
