/* XPM */
static char *exit[] = {
/* columns rows colors chars-per-pixel */
"50 50 193 2 ",
"   c #752C15",
".  c #792E16",
"X  c #743112",
"o  c #7C3216",
"O  c #7D3B11",
"+  c #7C3219",
"@  c #813516",
"#  c #833E12",
"$  c #8C3D13",
"%  c #833518",
"&  c #863B1B",
"*  c #8B3C1A",
"=  c #913F1A",
"-  c #82410F",
";  c #9B4F0E",
":  c #944D0E",
">  c #95510F",
",  c #9B550E",
"<  c #8C4213",
"1  c #8D421D",
"2  c #944413",
"3  c #9A4613",
"4  c #9D4A13",
"5  c #93431A",
"6  c #974919",
"7  c #9C4C1A",
"8  c #964A18",
"9  c #9C5314",
"0  c #9B551A",
"q  c #9F5B1F",
"w  c #A7560F",
"e  c #A85C0E",
"r  c #A35C0E",
"t  c #B05F0D",
"y  c #A34D12",
"u  c #A04E1A",
"i  c #A55313",
"p  c #AC5412",
"a  c #A45D13",
"s  c #AD5A14",
"d  c #A4541C",
"f  c #A9551B",
"g  c #AB581C",
"h  c #B15612",
"j  c #B45B12",
"k  c #BA5D12",
"l  c #B25C1B",
"z  c #926213",
"x  c #B5690E",
"c  c #BC700E",
"v  c #AD6212",
"b  c #A9641A",
"n  c #AF6A1A",
"m  c #A26317",
"M  c #B66214",
"N  c #BC6112",
"B  c #B36C14",
"V  c #BB6A12",
"C  c #B5631B",
"Z  c #BC631A",
"A  c #B66C1A",
"S  c #BD6E1A",
"D  c #AB7614",
"F  c #BF7413",
"G  c #B77F11",
"H  c #BB7D1C",
"J  c #B87719",
"K  c #8A4224",
"L  c #934622",
"P  c #954825",
"I  c #9B4F22",
"U  c #924728",
"Y  c #9E5221",
"T  c #AF5A20",
"R  c #B06720",
"E  c #B96722",
"W  c #B06F25",
"Q  c #BD6922",
"!  c #A37421",
"~  c #B97722",
"^  c #A57930",
"/  c #C2760C",
"(  c #C9770F",
")  c #C47D0C",
"_  c #CB7D0B",
"`  c #D4760E",
"'  c #D67A0D",
"]  c #DD7E0C",
"[  c #C36311",
"{  c #C36C12",
"}  c #CA6B16",
"|  c #C26B1F",
" . c #C96D1D",
".. c #C37412",
"X. c #CD7214",
"o. c #C47911",
"O. c #C97A13",
"+. c #C4781B",
"@. c #D07814",
"#. c #D0771B",
"$. c #C17520",
"%. c #D37F21",
"&. c #BD8316",
"*. c #BB8018",
"=. c #BA8027",
"-. c #CD810C",
";. c #D2850B",
":. c #D6890C",
">. c #DC8E0A",
",. c #DC870B",
"<. c #DE900A",
"1. c #C58012",
"2. c #CB8416",
"3. c #CD8914",
"4. c #CF871F",
"5. c #D28511",
"6. c #D68B13",
"7. c #DC8810",
"8. c #D08318",
"9. c #D78D1A",
"0. c #D88918",
"q. c #CB941F",
"w. c #CD9215",
"e. c #DA9415",
"r. c #DB9B16",
"t. c #D39318",
"y. c #D9911E",
"u. c #D39818",
"i. c #E08E09",
"p. c #E1830B",
"a. c #E39507",
"s. c #ED9D06",
"d. c #E39309",
"f. c #E8970A",
"g. c #E5980C",
"h. c #EA9C0C",
"j. c #F09F04",
"k. c #F19B0A",
"l. c #E09611",
"z. c #E39D12",
"x. c #E99F14",
"c. c #E09D1C",
"v. c #DCA41B",
"b. c #EEA40C",
"n. c #EEAA0F",
"m. c #F2A306",
"M. c #F1A40C",
"N. c #F2AA0C",
"B. c #F6B30F",
"V. c #F8B50F",
"C. c #E4A215",
"Z. c #EAA612",
"A. c #EEAB12",
"S. c #E5A21C",
"D. c #EBA61A",
"F. c #E6AC19",
"G. c #ECAC19",
"H. c #F1AD12",
"J. c #F2AB18",
"K. c #F1A613",
"L. c #EEB017",
"P. c #EAB41B",
"I. c #E9B91E",
"U. c #F4B414",
"Y. c #F8B611",
"T. c #F5BB16",
"R. c #F8BF14",
"E. c #F3B51A",
"W. c #F5BC1A",
"Q. c #F8B91C",
"!. c #CC8C25",
"~. c #CA8622",
"^. c #D08829",
"/. c #C79325",
"(. c #D29121",
"). c #DB9726",
"_. c #DCAB20",
"`. c #D6A12A",
"'. c #DCA628",
"]. c #E5AC24",
"[. c #EDAE25",
"{. c #E4B020",
"}. c #EEBC24",
"|. c #F2B427",
" X c #F3BB23",
".X c #F1BF2B",
"XX c #E4A830",
"oX c #F2BC3D",
"OX c #F2C21C",
"+X c #F5C327",
"@X c #F3C129",
"#X c #F1BC45",
"$X c None",
/* pixels */
"$X$X$X$X$X$X$X$X$X$X$X$X$X$X$X$X$X$X$X$X$X$X$X$X$X$X$X$X$X$X$X$X$X$X$X$X$X$X$X$X$X$X$X$X$X$X$X$X$X$X",
"$X$X$X$X$X$X$X$X$X$X$X$X$X$X$X$X$X$X$X$X$X$X$X$X$X$X$X$X$X$X$X$X$X$X$X$X$X$X$X$X$X$X$X$X$X$X$X$X$X$X",
"$X$X$X$X$X$X$X$X$X$X$X$X$X$X$X$X$X$X$X$X$X$X$X$X$X$X$X$X$X$X$X$X$X$X$X$X$X$X$X$X$X$X$X$X$X$X$X$X$X$X",
"$X$X$X$X$X$X$X$X$X$X$X$X$X$X$X$X$X$X$X$X$X$X$X$X$X$X$X$X$X$X$X$X$X$X$X$X$X$X$X$X$X$X$X$X$X$X$X$X$X$X",
"$X$X$X$X$X$X$X$X$X$X$X$X$X$X$X$X$X$X$X$X$X$X$X$X$X$X$X$X$X$X$X$X$X$X$X$X$X$X$X$X$X$X$X$X$X$X$X$X$X$X",
"$X$X$X$X$X$X$X$X$X$X$X$X$X$X$X$X$X$X$X$X$X$X$X$X$X$X$X$X$X$X$X$X$X$X$X$X$X$X$X$X$X$X$X$X$X$X$X$X$X$X",
"$X$X$X$X$X$X$X$X$X$X$X$X$X$X$X$X$X$X$X$X$X$X$X$X$X$X$X$X$X$X$X$X$X$X$X$X$X$X$X$X$X$X$X$X$X$X$X$X$X$X",
"$X$X$X$X$X$X$X$X$X$X$X$X$X$X$X$X}.}.{.'.$X$X$X$X$X$X$X$X$X$X$X$X$X$X$X$X$X$X$X$X$X$X$X$X$X$X$X$X$X$X",
"$X$X$X$X$X$X$X$X$X$X$X$X$X.X Xv.2.o...| N M j C C C $X$X$X$X$X$X$X$X$X$X$X$X$X$X$X$X$X$X$X$X$X$X$X$X",
"$X$X$X$X$X$X$X$X$X$X$X$X.XF.J w i h j N N [ [ [ [ N N k k C E E C $X$X$X$X$X$X$X$X$X$X$X$X$X$X$X$X$X",
"$X$X$X$X$X$X$X$X$X$X$X@Xv.a p j k j j j j j h Z Z N [ [ [ {  .[ N M +.S.U.A.M.M.$X$X$X$X$X$X$X$X$X$X",
"$X$X$X$X$X$X$X$X$X$XU.P.a ; y p l h j k k k | | N M M t j N N N [ 7.E.H.m.s.>.d.m.J.$X$X$X$X$X$X$X$X",
"$X$X$X$X$X$X$X$X$X XR.&.4 p p f f p y i p h Z k k [ [ [ [ [ [ N 5.U.H.M.;.9 < 4 e.J.$X$X$X$X$X$X$X$X",
"$X$X$X$X$X$X$X$X$X@XP.0 3 y f T p p h p p p i i p p j k k N [ @.|.E.K._ O % * 6 R Z.$X$X$X$X$X$X$X$X",
"$X$X$X$X$X$X$X$X XY.u.2 3 3 7 4 4 y y p p p h h h h l l s h j l.E.A.:.# % * * 5 d x.N.$X$X$X$X$X$X$X",
"$X$X$X$X$X$X$X$XU.R.&.2 4 4 4 y 4 4 4 7 4 y y p p l l h j j { N.N.h.> . % # 5 7 u e.N.$X$X$X$X$X$X$X",
"$X$X$X$X$X$X$X$XV.OXm < 2 2 3 3 y y u d y y 4 ; y d i p p s 9.U.m.) X . @ 5 5 1 g v.m.$X$X$X$X$X$X$X",
"$X$X$X$X$X$X$X$XV.I.8 5 5 2 < 2 2 8 T 3 3 y y y y i y y y p ].A.m., X o * K 5 A C.N.M.$X$X$X$X$X$X$X",
"$X$X$X$X$X$X$XE.V.OX/.=.b 9 8 2 = 5 < 2 2 8 3 3 y y y y i S E.M.<.O . + K 0 4.b.M.H.Z.$X$X$X$X$X$X$X",
"$X$X$X$X$X$X$XZ.n.U. XW.I.P.v./.H b 9 8 3 2 8 2 2 2 3 4 u 8.Y.m.;.  . # J C.N.m.m.A.$X$X$X$X$X$X$X$X",
"$X$X$X$X$X$X$XE.n.n.Z.b.Z.A.U.T.R.W.I.v./.=.W d 4 3 3 2 I e.Y.m.c X 9 w.b.b.H.h.x.$X$X$X$X$X$X$X$X$X",
"$X$X$X$X$X$X$X$XU.V.U.U. Xn.Z.Z.Z.Z.n.U.OX+XOXI._.(.*.n s ].E.j.1.J Z.b.s.m.3.A 9.$X$X$X$X$X$X$X$X$X",
"$X$X$X$X$X$X$X$Xx.f.) 3.v.E.Q.Y. XA.n.Z.A.Z.Z.A.U.OXOXOXI.U.N.s.A.D.C.n.a.x 7 E :.$X$X$X$X$X$X$X$X$X",
"$X$X$X$X$X$X$X$X$Xd., @ < Y B O.r.Z.B.B.OXU.N.A.Z.Z.Z.b.U.H.N.h.x.s.M.1.4 5 7 V :.$X$X$X$X$X$X$X$X$X",
"$X$X$X$X$X$X$X$X$Xf.e $ $ $ $ $ 2 9 v o.t.z.H.V.@X XH.N.Z.Z.z.S.b.a.r # 5 5 6 { :.$X$X$X$X$X$X$X$X$X",
"$X$X$X$X$X$X$X$X$Xh.x $ $ 8 2 3 3 u u 3 3 i v ..(.r.n.B.Y.+Xn.A.F - o * 5 5 7 X.6.$X$X$X$X$X$X$X$X$X",
"$X$X$X$X$X$X$X$X$Xx.o.< 3 2 3 3 4 ~ ).2.M p s p h h M / 6.N.b.>.-   & * U 5 u _ $X$X$X$X$X$X$X$X$X$X",
"$X$X$X$X$X$X$X$X$XD.2.2 3 3 3 y f ^.`.w.;.w p h j k N N X.k.d._ O . & U 5 5 7 ;.$X$X$X$X$X$X$X$X$X$X",
"$X$X$X$X$X$X$X$X$X[.:.3 2 2 3 3 $.|.D z e.h h h h j k k #.k.i._ O o & * * * i :.$X$X$X$X$X$X$X$X$X$X",
"$X$X$X$X$X$X$X$X$X$X<.4 2 3 3 8 i e.G ! #X^.j k k k N | X.k.>./ o % % % & 5 j 0.$X$X$X$X$X$X$X$X$X$X",
"$X$X$X$X$X$X$X$X$X$Xf.w 2 4 4 y 3 F &.^ #X~.h k k N [ [ ` k.i.c X o o % * = A (.$X$X$X$X$X$X$X$X$X$X",
"$X$X$X$X$X$X$X$X$X$Xb.e 5 T y y y j XXoXc.p p h j N [ [ ` j.>.B + . % * * * S 6.$X$X$X$X$X$X$X$X$X$X",
"$X$X$X$X$X$X$X$X$X$XZ.c I 4 4 y p y | e.{ h j k l k h k ` s.<.A   + % % % 1 ( $X$X$X$X$X$X$X$X$X$X$X",
"$X$X$X$X$X$X$X$X$X$XL.O.3 4 4 4 y y p p h t k k | N [ [ ' k.e.a   + + % & 4 r.L.$X$X$X$X$X$X$X$X$X$X",
"$X$X$X$X$X$X$X$X$X$XW.e.a y y y f i y p p h k | [ [ [ [ ] b.<.,   . + % d e.E.G.$X$X$X$X$X$X$X$X$X$X",
"$X$X$X$X$X$X$X$X$X$XW.W.A.v.2.Z C p p h h j l l j [ [ [ ] b.:.:   . & ~ F.N.N.$X$X$X$X$X$X$X$X$X$X$X",
"$X$X$X$X$X$X$X$X$X$X@XE.B.W.T. XG.e.O.V k k k k k k k k ' M.:.<   * !.N.U.Z.$X$X$X$X$X$X$X$X$X$X$X$X",
"$X$X$X$X$X$X$X$X$X$X$X$XU.T.U.U.U.T.T.L.C.6.O.{ [ [ }  .,.K.;.< 0 ).N.m.Z.$X$X$X$X$X$X$X$X$X$X$X$X$X",
"$X$X$X$X$X$X$X$X$X$X$X$X$X$X$XE.E.T.U.Y.Q.T.U.A.z.0.%.} p.b.;.&.Z.E.n.$X$X$X$X$X$X$X$X$X$X$X$X$X$X$X",
"$X$X$X$X$X$X$X$X$X$X$X$X$X$X$X$X$X$XE. XE.U.V.V.W.W.E.Z.Z.H.A.N.m.N.$X$X$X$X$X$X$X$X$X$X$X$X$X$X$X$X",
"$X$X$X$X$X$X$X$X$X$X$X$X$X$X$X$X$X$X$X$X$X$XE.U.T.U.V.V.W.B.E.H.M.$X$X$X$X$X$X$X$X$X$X$X$X$X$X$X$X$X",
"$X$X$X$X$X$X$X$X$X$X$X$X$X$X$X$X$X$X$X$X$X$X$X$X$XE.U.T. XU.J.$X$X$X$X$X$X$X$X$X$X$X$X$X$X$X$X$X$X$X",
"$X$X$X$X$X$X$X$X$X$X$X$X$X$X$X$X$X$X$X$X$X$X$X$X$X$X$X$X$X|.$X$X$X$X$X$X$X$X$X$X$X$X$X$X$X$X$X$X$X$X",
"$X$X$X$X$X$X$X$X$X$X$X$X$X$X$X$X$X$X$X$X$X$X$X$X$X$X$X$X$X$X$X$X$X$X$X$X$X$X$X$X$X$X$X$X$X$X$X$X$X$X",
"$X$X$X$X$X$X$X$X$X$X$X$X$X$X$X$X$X$X$X$X$X$X$X$X$X$X$X$X$X$X$X$X$X$X$X$X$X$X$X$X$X$X$X$X$X$X$X$X$X$X",
"$X$X$X$X$X$X$X$X$X$X$X$X$X$X$X$X$X$X$X$X$X$X$X$X$X$X$X$X$X$X$X$X$X$X$X$X$X$X$X$X$X$X$X$X$X$X$X$X$X$X",
"$X$X$X$X$X$X$X$X$X$X$X$X$X$X$X$X$X$X$X$X$X$X$X$X$X$X$X$X$X$X$X$X$X$X$X$X$X$X$X$X$X$X$X$X$X$X$X$X$X$X",
"$X$X$X$X$X$X$X$X$X$X$X$X$X$X$X$X$X$X$X$X$X$X$X$X$X$X$X$X$X$X$X$X$X$X$X$X$X$X$X$X$X$X$X$X$X$X$X$X$X$X",
"$X$X$X$X$X$X$X$X$X$X$X$X$X$X$X$X$X$X$X$X$X$X$X$X$X$X$X$X$X$X$X$X$X$X$X$X$X$X$X$X$X$X$X$X$X$X$X$X$X$X",
"$X$X$X$X$X$X$X$X$X$X$X$X$X$X$X$X$X$X$X$X$X$X$X$X$X$X$X$X$X$X$X$X$X$X$X$X$X$X$X$X$X$X$X$X$X$X$X$X$X$X"
};
