/* XPM */
static char *player[] = {
/* columns rows colors chars-per-pixel */
"50 50 192 2 ",
"   c #150202",
".  c #1B0807",
"X  c #1B0A0A",
"o  c #1C0B0A",
"O  c #1C0B0B",
"+  c #1D0C0B",
"@  c #1E0E0D",
"#  c #200F0E",
"$  c #210F0E",
"%  c #25110F",
"&  c #311404",
"*  c #361705",
"=  c #3A1A07",
"-  c #281312",
";  c #291312",
":  c #2D1515",
">  c #2F1716",
",  c #301710",
"<  c #321817",
"1  c #3E1F12",
"2  c #361A19",
"3  c #391C1B",
"4  c #3C1E1C",
"5  c #19242B",
"6  c #1C262B",
"7  c #1B262E",
"8  c #1C272E",
"9  c #1E2A31",
"0  c #242F36",
"q  c #253139",
"w  c #24323B",
"e  c #26333B",
"r  c #27353E",
"t  c #29353C",
"y  c #29353D",
"u  c #431F08",
"i  c #482408",
"p  c #4B2609",
"a  c #4E260A",
"s  c #5B2C0D",
"d  c #5C2E0C",
"f  c #472613",
"g  c #40201E",
"h  c #43221F",
"j  c #532C11",
"k  c #5C341B",
"l  c #602A0E",
"z  c #62310D",
"x  c #6F360F",
"c  c #663410",
"v  c #6A3311",
"b  c #6F3912",
"n  c #733913",
"m  c #743910",
"M  c #7A3C13",
"N  c #7C490F",
"B  c #69401E",
"V  c #79451B",
"C  c #2E3B43",
"Z  c #303C43",
"A  c #32424D",
"S  c #374854",
"D  c #3E4950",
"F  c #394A56",
"G  c #3F4C55",
"H  c #3C4D59",
"J  c #3D4E5A",
"K  c #454E51",
"L  c #414E56",
"P  c #41525D",
"I  c #4F585B",
"U  c #565855",
"Y  c #7B6759",
"T  c #495760",
"R  c #475863",
"E  c #4E5E67",
"W  c #50626D",
"Q  c #5C696E",
"!  c #60676C",
"~  c #7B776C",
"^  c #616E74",
"/  c #6E767C",
"(  c #6D787C",
")  c #797877",
"_  c #8D0604",
"`  c #8E0604",
"'  c #8E0705",
"]  c #8B0906",
"[  c #8C0906",
"{  c #970706",
"}  c #990705",
"|  c #980706",
" . c #9B0706",
".. c #A70807",
"X. c #B40807",
"o. c #BF0708",
"O. c #B20808",
"+. c #A12F2F",
"@. c #C20708",
"#. c #C70808",
"$. c #C90809",
"%. c #D10C0B",
"&. c #D60D0C",
"*. c #DE100E",
"=. c #D41E13",
"-. c #8F570D",
";. c #844216",
":. c #864216",
">. c #814516",
",. c #8D4617",
"<. c #824519",
"1. c #914B18",
"2. c #974B18",
"3. c #9E4C1A",
"4. c #93521D",
"5. c #A0541B",
"6. c #A2561C",
"7. c #A1571F",
"8. c #AB5A1F",
"9. c #B7601F",
"0. c #BC701D",
"q. c #8A5023",
"w. c #A15520",
"e. c #AA5C21",
"r. c #9A6035",
"t. c #B16024",
"y. c #B26125",
"u. c #B86522",
"i. c #BB6828",
"p. c #BE6C2A",
"a. c #AD6830",
"s. c #B57038",
"d. c #C36C25",
"f. c #C16E2B",
"g. c #C97325",
"h. c #CD7125",
"j. c #CF7427",
"k. c #CC7329",
"l. c #D67F35",
"z. c #AA5958",
"x. c #A36D5F",
"c. c #90796A",
"v. c #B3746A",
"b. c #C67C41",
"n. c #BF945C",
"m. c #8E8A7E",
"M. c #A38F7C",
"N. c #CF8645",
"B. c #D48843",
"V. c #E28C40",
"C. c #E18E43",
"Z. c #E5944B",
"A. c #788181",
"S. c #7F888A",
"D. c #878C8F",
"F. c #899192",
"G. c #969B98",
"H. c #A68F80",
"J. c #A49388",
"K. c #BE9D85",
"L. c #9DA4A1",
"P. c #A2A3A4",
"I. c #AAA7A4",
"U. c #A6ACA7",
"Y. c #B7AFA9",
"T. c #B0B3AF",
"R. c #B4B9B3",
"E. c #BCB9B8",
"W. c #CBA588",
"Q. c #CAB29E",
"!. c #CBBCAE",
"~. c #C6BEB5",
"^. c #C2C3BD",
"/. c #E6CBA2",
"(. c #EED0A3",
"). c #CCC6C3",
"_. c #CACBC5",
"`. c #D4CFC8",
"'. c #D6D0CC",
"]. c #D6D7CC",
"[. c #D0D1D1",
"{. c #D4D5D6",
"}. c #DFDFD1",
"|. c #DDDDDD",
" X c #DFDFDF",
".X c #E3E4E4",
"XX c #E4E4E4",
"oX c #E6E6E6",
"OX c #E7E6E6",
"+X c gray91",
"@X c #EAEAEA",
"#X c None",
/* pixels */
"#X#X#X#X#X#X#X#X#X#X#X#X#X#X#X#X#X#X#X#X#X#X#X#X#X#X#X#X#X#X#X#X#X#X#X#X#X#X#X#X#X#X#X#X#X#X#X#X#X#X",
"#X#X#X#X#X#X#X#X#X#X#X#X#X#X#X#X#X#X#X#X#X#X#X#X#X*.&.#X#X#X#X#X#X#X#X#X#X#X#X#X#X#X#X#X#X#X#X#X#X#X",
"#X#X#X#X#X#X#X#X#X#X#X#X#X#X#X#X#X#XX.X.#X#X#XO.$.$.$.@.#.#X#Xv.#X#X#X#X#X#X#X#X#X#X#X#X#X#X#X#X#X#X",
"#X#X#X#X#X#X#X#X' { %.=.=.B.#X#X#X#X#X .{  .] ..o.@.o.$.$.o. .z.#X#X#X#X#X#X#X#X#X#X#X#X#X#X#X#X#X#X",
"#X#X#X=.%.&.#.@. .` ....+.#X#X#X#X#X#X#X' [ [ '  .#X . ... ._ z.#X#X#X#X#X#X#X#X#X#X#X#X#X#X#X#X#X#X",
"#X#X#X$.$.$.o...` [ ' ' +.#X#X#X#X#X#X#X#X#X#X#X#X#X#X#X] [ _ z.#X#X#X#X#X#X#X#X#X#X#X#X#X#X#X#X#X#X",
"#X#X#X .{  .' { | #X#X#X#X#X#X#X#X#X#X#X#X#X#X#X#X#X#X#X#X#X` x.XX#X#X#X#X#X#X#X#X#X#X#X#X#X#X#X#X#X",
"#X#X#X#X#X8.#X#X#X#X#X#X#X+X#X#X#X#X#X#Xg.0.!./.(.#X#X#X#X#X#X#XXX#X#X#X#X#X#X#X#X#X#X#X#X#X#X#X#X#X",
"#X#X#X#X#X#XT T ! / D.P.'.XX#X#X#X#X#X#X#X#X#X#Xm.Y..XXX/.`.#X`.'.#X#X#X#X#X#X#X#X#X#X#X#X#X#X#X#X#X",
"#X#X#X#X#X#X8 8 K I e t P.@X#X#X#X#X#X#X#X#X#X#X#Xe e D U m.#XY.M.`.#X#X#X#X#X#X#X#X#X#X#X#X#X#X#X#X",
"#X#X#X#X#X#XZ I G.L.E 6 #X+X#X#X#X#X#X#X#X#X#X#X#X#Xt 7 7 t #XP.).#X#XI.M.~.#X#X#X#X#X#X#X#X#X#X#X#X",
"#X#X#X#X#X#X( G.^.^.S.e #XXX#X#X#X#X#X#X#X#X#X#X#X#X#XC 7 C e t G 6 6 r I L D ) ~ F.N.#X#X#X#X#X#X#X",
"#X#X#X#X#Xe A.G.T.L.S.w #X.X#X#X#X#X#X#X#X#X#X#X#X#X#XH e C H 9 7 9 ^ U._.^.A.C t F U #X#X#X#X#X#X#X",
"#X#X#X#X#X8 R P Q L.^ q #X+X#X#X#X#X#X#X#X#X#X#X#X#X#X#XH C P F 7 I U.I G.L.C I A F R R #X#X#X#X#X#X",
"#X#X#X#X0 t S S S P F q #X+X#X#X#X#X#X#X#X#X#X#X#X#X#X#XH A F H C A.G.A L.^.K Q E D.E R R #X#X#X#X#X",
"#X#X#X#X#X) / / ^ E S q #X+X#X#X#X#X#X#X#X#X#X#X#X#X#X#X#XF S S S ( _.R.}.}.].R.^ ].T.E P H #X#X#X#X",
"#X#X#X#X#X#X#X#X#X#XP.P.`.OX#X#X#X#X#X#X#X#X#X#X#X#X#X#X#XL F S E T.U.T._.}.T.A.U.U.F.R S F #X#X#X#X",
"#X#X#X#X#X#X#X#X#X#X#X#X#XOX#X#X#X#X#X#X#X#X#X#X#X#X#X#X#XH S S ^ }._.U.U.R.F.R.F.P Q P S S L #X#X#X",
"#X#X#X#X#X#X#X#X#X#X#X#X#XOX#X#X#X#X#X#X#X#X#X#X#X#X#X#X#XD S S R F.( A.U.]._.^.L.T._.Q S S S #X#X#X",
"#X#X#X#X#X#X#X#X#X#X#X#X#XOX#X#X#X#X#X#X#X#X#X#X#X#X#X#X#X#XA S S P A.F.R.G.E E Q F.^.E S S S e #X#X",
"#X#X#X#X#X#X#X#X#X#X#X#X#XOX#X#X#X#X#X#X#X#X#X#X#X#X#X#X#X#XA S S ^ ].}.F.R H F S F E H S S S 6 #X#X",
"#X#X#X#X#X#X#X#X#X#X#X#X#X X#X#X#X#X#X#X#X#X#X#X#X#X#X#X#X#XZ S H W F.T.^ W W W E E R P S S A 0 #X#X",
"#X#X#X#X#X#X#X#X#X#X#X#X#X X#X#X#X#X#X#X#X#X#X#X#X#X#X#X#X#Xr S R W W W W R P P H P R E H S e 6 #X#X",
"#X#X#X#X#X#X#X#X#X#X#X#X#X[.#X#X#X#X#X#X#X#X#X#X#X#X#X#X#X#Xt H W W E P A e 9 9 9 9 e C e e 7 e #X#X",
"#X#X#X#X#X#X#X#X#X#X#X#X#X[.~.#X#X#X#X#X#X#X#X#X#X#X#X#X#X#Xt H R P C 9 7 7 7 9 9 9 7 7 7 7 7 #X#X#X",
"#X#X#X#X#X#Xt.7.8.<.q.c x.[.H.7.8.7.t.u.7.p.#X#X#X#X#X#X#X#Xr S A r 7 7 6 #X#X#X#X#X#X#X#X6 6 #X#X#X",
"#X#X#Xu.<.n #Xc #Xc #XP.T.[.^.Y.#Xc #X#Xb #X#X#X#X#X#X#X#X#X8 e 9 t r #X#X#X#X#X#X#X#X#X#X#X#X#X#X#X",
"#X#XB.t.#X#X#Xc #Xc #X#XE.[._.J.#Xb #X#Xc #X#X#X#X#X#X#X#X#X9 C S.~.#X#X#X#X#X#X#X#X#X#X#X#X#X#X#X#X",
"#X#X8.f.k.g.p.7.t.5.y.y.K.Q.!.r.7.4.6.7.>.u.#X#X#X#X#X#X#X#X7 I.XX+X#X#X#X#X#X#X#X#X#X#X#X#XB.Z.g.#X",
"#X#X#X:.w.6.i.i.i.d.i.b.s.s.K.W.l.j.j.j.l.i.b #X#X#X#X#X#X#X#X#XXX+X#X#X#X#X#X#X#X#X#X#XB.C.l.9.d #X",
"#X#X:.,.2.M 9.3.5.e.V M.c.Y E.T.l.j.l.j.4.d n t.#X#X#X#X#X#X#XI..XXX#X#Xq.N.h.h.h.k.j.j.d.e.M * + #X",
"#X#Xc M >.M 6.,.5.9.:.a.r.r.b.b.k.d.4.z d ;.2.M 1.#X#X#X#X#X#X) _.).#X#X#Xj.,.z x m x d u & .   @ #X",
"#X#Xa d d z m x M 2.M 3.,.,.9.6.;.d d M 2.;.a u a 1.u.#X#X#X#XJ.H.M.#X#X#Xg.x   . . . . + @ % % X #X",
"#X#X#X#X#Xi a a a d d v z d d a d n ,.2.v = * = u a m 7.u.B.^.{.{.|.+X#X#XV.;.X # ; : : : : 2 3 @ #X",
"#X#X#X#X#X#Xs a a d d z c x x m ,.3.;.a * = * * = u u u s M J.{.|.|.Q.f.f.l.c o % : : : < : 3 g @ #X",
"#X#X#X#X#X#X2.e.e.w.6.2.1.2.w.7.2.z * = = & * = * = u = & & Y [.|..XW.b.e.M ; @ ; < : < : < 3 g ; #X",
"#X#X#X#X#X#Xl z v v m M ;.,.7.i.;.* = * & = * * = * & * = * Y _.|..XW.e.j % % - : > > > : < 4 g @ #X",
"#X#X#X#X#X#X+             X . u e.V * & = * * = * = * & & = G._._.{.K.,., : < : > > > > : < 4 4 % #X",
"#X#X#X#X#X#XX         . . X X X j e.4.j * * * & & = = = = , F.^.^.Q.b.c : < : < > > > > : < 4 2 + #X",
"#X#X#X#X#X#X+     . @ @ # @ @ # @ 1 ;.e.4.V j i = & & * * & 1 b r.s.M , : < : : > > > > : > 4 > #X#X",
"#X#X#X#X#X#X#X+ . @ @ @ f N j : 2 < : 1 c 4.a.s.s.s.a.a.a.a.e.w.M f - < g k f : > > > > : > 2 % #X#X",
"#X#X#X#X#X#X#XX @ @ @ % -.d -.1 < g g 4 < : , 1 j k k k k f 1 < - < 4 4 V -.-.f : > > > > : ; #X#X#X",
"#X#X#X#X#X#X#X#X# @ @ @ z x N 3 2 2 2 3 h h g 4 2 2 < < < < 3 4 g 4 2 < N d N j : > > > < ; @ #X#X#X",
"#X#X#X#X#X#X#X#X#X# @ @ @ , % ; < 2 g 3 k B h g 4 h h h h k k 3 2 3 4 4 1 z d < > > > : ; # #X#X#X#X",
"#X#X#X#X#X#X#X#X#X#X+ @ @ @ @ @ - : < k -.N N 4 g 4 4 4 b -.-.B 3 3 < < : : : > > : : % # #X#X#X#X#X",
"#X#X#X#X#X#X#X#X#X#X#X# @ @ @ @ @ % - f M c N 3 4 4 4 3 z x n B : : : : > > > > : - % X #X#X#X#X#X#X",
"#X#X#X#X#X#X#X#X#X#X#X#X+ # @ @ @ @ @ % 1 j g 4 4 4 3 3 3 a j < > > : < > : : - # # #X#X#X#X#X#X#X#X",
"#X#X#X#X#X#X#X#X#X#X#X#X#X#X#XX # @ @ @ # # % : > < < < < : : : : : - - % + X + #X#X#X#X#X#X#X#X#X#X",
"#X#X#X#X#X#X#X#X#X#X#X#X#X#X#X#X#X#X+ # # # + # # # # # # + # # % @ X + #X#X#X#X#X#X#X#X#X#X#X#X#X#X",
"#X#X#X#X#X#X#X#X#X#X#X#X#X#X#X#X#X#X#X#X#X#X#X#X#X#X#X#X#X#X#X#X#X#X#X#X#X#X#X#X#X#X#X#X#X#X#X#X#X#X"
};
