/* XPM */
static char *final[] = {
/* columns rows colors chars-per-pixel */
"50 50 221 2 ",
"   c #4D1400",
".  c #4E1B00",
"X  c #521600",
"o  c #551C00",
"O  c #5A1E00",
"+  c #562000",
"@  c #5A2100",
"#  c #5E2900",
"$  c #54280D",
"%  c #632500",
"&  c #662A01",
"*  c #6A2B04",
"=  c #712F00",
"-  c #6C3300",
";  c #743501",
":  c #793600",
">  c #743C02",
",  c #7C3B00",
"<  c #733F09",
"1  c #7C4604",
"2  c #823D00",
"3  c #8B3E00",
"4  c #844300",
"5  c #8C4300",
"6  c #8B4B01",
"7  c #874C00",
"8  c #924500",
"9  c #944B02",
"0  c #9B4D02",
"q  c #924E09",
"w  c #984D08",
"e  c #8D5101",
"r  c #955203",
"t  c #9C5102",
"y  c #955A01",
"u  c #9B5B01",
"i  c #95520C",
"p  c #9A540C",
"a  c #955A0C",
"s  c #995314",
"d  c #9D5A14",
"f  c #995716",
"g  c #964D15",
"h  c #A04F02",
"j  c #A35400",
"k  c #A95601",
"l  c #A45B01",
"z  c #AC5A01",
"x  c #A25B0F",
"c  c #AF5D0A",
"v  c #B25E01",
"b  c #B25F09",
"n  c #A45D13",
"m  c #A85F12",
"M  c #A25D1B",
"N  c #996505",
"B  c #A26303",
"V  c #A46A02",
"C  c #AA6E04",
"Z  c #A86609",
"A  c #B56202",
"S  c #B96504",
"D  c #BD6A04",
"F  c #B5640B",
"G  c #BC6A0B",
"H  c #B56907",
"J  c #AC7303",
"K  c #AA780A",
"L  c #B57C02",
"P  c #BB7A02",
"I  c #BA7806",
"U  c #AB6214",
"Y  c #A4621B",
"T  c #AB641D",
"R  c #AA6417",
"E  c #B56913",
"W  c #BC6D12",
"Q  c #B26C1E",
"!  c #B46916",
"~  c #AA7218",
"^  c #BD7116",
"/  c #BB731B",
"(  c #B47816",
")  c #966721",
"_  c #AC6922",
"`  c #AB6620",
"'  c #B36D22",
"]  c #B77122",
"[  c #C16C05",
"{  c #C26E0A",
"}  c #C3710E",
"|  c #C57904",
" . c #C47414",
".. c #C87B1D",
"X. c #C67615",
"o. c #C57B22",
"O. c #CA7E21",
"+. c #BC8D0B",
"@. c #BB8508",
"#. c #B38314",
"$. c #BC9920",
"%. c #C58901",
"&. c #C68604",
"*. c #CC9201",
"=. c #CA930D",
"-. c #C59709",
";. c #D49501",
":. c #D49A01",
">. c #DA9C00",
",. c #D99300",
"<. c #C38917",
"1. c #CB9C1A",
"2. c #CD9617",
"3. c #D39711",
"4. c #E49D00",
"5. c #DDA402",
"6. c #D7A60C",
"7. c #DDB50D",
"8. c #D6AC14",
"9. c #DBAA15",
"0. c #D6A315",
"q. c #D9B41A",
"w. c #DDB819",
"e. c #CFA207",
"r. c #E3A400",
"t. c #EAA400",
"y. c #E4AB01",
"u. c #EBAD01",
"i. c #F1AD00",
"p. c #EAB401",
"a. c #ECBD04",
"s. c #EEB90B",
"d. c #E7B608",
"f. c #F3B402",
"g. c #F5BC02",
"h. c #F6BC09",
"j. c #F7BB0A",
"k. c #E6B817",
"l. c #F3BA14",
"z. c #E3AA12",
"x. c #D09C28",
"c. c #C0A126",
"v. c #D5A726",
"b. c #DCB524",
"n. c #E0BD23",
"m. c #E3BE32",
"M. c #EDC80F",
"N. c #F5C302",
"B. c #F9C403",
"V. c #F6CB05",
"C. c #FBCC02",
"Z. c #F4C20B",
"A. c #F9C50D",
"S. c #F7CA0C",
"D. c #FACD0C",
"F. c #FBD203",
"G. c #FFDB03",
"H. c #FCD20B",
"J. c #FDDC0A",
"K. c #F3D20B",
"L. c #E5C11D",
"P. c #ECC31E",
"I. c #F9C513",
"U. c #F6CB13",
"Y. c #FACD14",
"T. c #F2C41C",
"R. c #FACC1A",
"E. c #F7C619",
"W. c #FBD413",
"Q. c #FCDB13",
"!. c #FCD41B",
"~. c #FDDA1C",
"^. c #F7D318",
"/. c #DBC232",
"(. c #E4C42A",
"). c #E9C928",
"_. c #F8CC25",
"`. c #EFD22C",
"'. c #F4D224",
"]. c #FBD524",
"[. c #FCDB23",
"{. c #FCD42A",
"}. c #F7D82B",
"|. c #FDDD2A",
" X c #F6D62E",
".X c #E5CB31",
"XX c #E9CF37",
"oX c #F9CD34",
"OX c #F0CA35",
"+X c #EED334",
"@X c #F4D632",
"#X c #FBD434",
"$X c #FCDA34",
"%X c #FCD63B",
"&X c #FDDB3A",
"*X c #F4D937",
"=X c #FEE425",
"-X c #FEE32C",
";X c #FDE233",
":X c #FEE43D",
">X c #FFE93E",
",X c #C3A043",
"<X c #FDDC44",
"1X c #FBDD4C",
"2X c #F2D644",
"3X c #EFD650",
"4X c #FCDC58",
"5X c #EACB40",
"6X c #FBE446",
"7X c #FCE24B",
"8X c #FFEC4B",
"9X c #F9E548",
"0X c #FEE553",
"qX c #FEEC52",
"wX c #FEE55C",
"eX c #FEED5A",
"rX c #FBE766",
"tX c #FEF26D",
"yX c #FDEA73",
"uX c #FEF981",
"iX c None",
/* pixels */
"iXiXiXiXiXiXiXiXiXiXiXiXiXiXiXiXiXiXiXiXiXiXiXiXiXiXiXiXiXiXiXiXiXiXiXiXiXiXiXiXiXiXiXiXiXiXiXiXiXiX",
"iXiXiXiXiXiXiXiXiXiXiXiXiXiXiXiXiXiXiXiXiXiXiXiXiXiXiXiXiXiXiXiXiXiXiXiXiXiXiXiXiXiXiXiXiXiXiXiXiXiX",
"iXiXiXiXiXiXiXiXiXiXiXiXiXiXiXiXiXiXiXiXiXiXiXiXiXiXiXiXiXiXiXiXiXiXiXiXiXiXiXiXiXiXiXiXiXiXiXiXiXiX",
"iXiXiXiXiXiXiXiXiXiXiXiXiXiXiXiXiXiXiXiXiXiXiXiXiXiXiXiXiXiXqXrX&XiXiXiXiXiXiXiXiXiXiXiXiXiXiXiXiXiX",
"iXiXiXiXiXiXiXiXiXiXiXiXiXiXiXiXiXiXiXiXiXiXiXiXiXiXiXiXiX;X7XqX&XiXiXiXiXiXiXiXiXiXiXiXiXiXiXiXiXiX",
"iXiXiXiXiXiXiXiXiXiXiXiXiXiXiXiXiXiXiXiXiXiXiXiXiXiXiXiXiX|.&X&X{.iXiXiXiXiXiXiXiXiXiXiXiXiXiXiXiXiX",
"iXiXiXiXiXiXiXiXiXiXiXiXiXiXiXiXiXiXiXiXiXiXiXiXiXiXiXiXiXY.R.].E.iXiXiXiXiXiXiXiXiXiXiXiXiXiXiXiXiX",
"iXiXiXiXiXiXiXiXiXiXiXiXiXiXiXiXiXiXiXiXiXiXiXiXiXiXiXiXiXg.Z.A.Z.iXiXiXiXiXiXiXiXiXiXiXiXiXiXiXiXiX",
"iXiXiXiXiXiXiXiXiXiXiXiXiXiXiXiXiXiXiXd.6.6.8.8.8.q.q.w.w.k.(.L.(.(.(.(..X.XXXXX+X+X;XY.f.iXiXiXiXiX",
"iXiXiXiXiXiXiXiXiXiXiXiXiXiXiXiXiXiXiXL o # * - - - - - - > - > ; > > > > 1 1 > 1 1 .X~.B.i.iXiXiXiX",
"iXiXiXiXiXiXiXiXiXiXiXiXiXiXiXiXiXiXN.V     & ; ; ; : : : : : : : : : : ; : : ; - 1 ).H.>.y.f.iXiXiX",
"iXiXiXiXiXiXiXiXiXiXiXiXiXiXiXiXiXiXp.u X X o 4 5 5 5 6 5 5 4 4 4 2 4 2 , , : > , 6 ).s.u e >.iXiXiX",
"iXiXiXiXiXiXiXiXiXiXiXiXiXiXiXiXiXiXp.6 X o X & : : ; : > , , , , , : , : : = = ; 6 `.;., : V u.iXiX",
"iXiXiXiXiXiXiXiXiXiXiXiXiXiXiXiXiXiXy.4 o O o & x n x x U U m m m m m M T M m m M ( @X*., , 7 >.iXiX",
"iXiXiXiXiXiXiXiXiXiXiXiXiXiXiXiXiXiX5.1 O O o % A D S D [ [ [ [ [ [ [ [ [ [ { [ [ &.}.%., 2 K s.iXiX",
"iXiXiXiXiXiXiXiXiXiXiXiXiXiXiXiXiXiX>.: O @ @ O 3 5 8 8 3 5 5 8 8 8 8 8 8 8 8 8 3 C }.%., 6 b.g.iXiX",
"iXiXiXiXiXiXiXiXiXiXiXiXiXiXiXiXiXiX*.; @ % o * ' ' ' ' ` ` ` ` T M M M M s g g g ..{.| 2 a '.f.iXiX",
"iXiXiXiXiXiXiXiXiXiXiXiXiXiXiXiXiXiX%.& O O o 2 { { } } }  .X. .X.O.O.O.O.o.o.o.O.v.'.I , a `.f.iXiX",
"iXiXiXiXiXiXiXiXiXiXiXiXiXiXiXiXiXiXP % o O o : 0 0 h h h h k k k k k v v v v v v 3.'.H , 7 b.j.iXiX",
"iXiXiXiXiXiXiXiXiXiXiXiXiXiXiXiXiXiXC o o o * w w 0 w h h 8 w 8 8 5 3 5 3 3 3 3 3 <.R.V , , ~ p.iXiX",
"iXiXiXiXiXiXiXiXiXiXiXiXiXiXiXiXiXiXu X . X 9 b m b F F b c b b b c c k c h j t 0 1.T.l , , V r.iXiX",
"iXiXiXiXiXiXiXiXiXiXiXiXiXiXiXiXiXp.5   $ ) ( Z 2 = ; ; : 2 2 2 2 2 2 3 3 8 8 5 8 0.T.u ; 4 ,.iXiXiX",
"iXiXiXiXiXiXiXiXiXiXiXiXiXiXiXiXiXy.y < ,XrX$XA.C @ + + + o O O $ o + + O O o o o $.[.J ; @.f.iXiXiX",
"iXiXiXiXiXiXiXiXiXiXiXiXiXiXj.l.{.I.s.XX<X].W.E.n.+.#.#.V N &.^ 1 - # # @ + . .   c.-Xr.,.4.iXiXiXiX",
"iXiXiXiXiXiXiXiXiXiXiXiX$X].I.h.R.R.l.#XI.I.I.%XoXI.I.{.I.oX%X].l.k.0.v.1.@.K K N /.|.Y.j.iXiXiXiXiX",
"iXiXiXiXiXiXB.oXrX&XI._.1XwX0X!.D.A.<X<Xj.j.oX#Xj.j.R.!.{.4X7X#XY.f.E.&XY.l.f.l.P.P.h.h.iXiXiXiXiXiX",
"iXiXiXN.Z.S.H.{.7X|.Y.h.W.$X#XU.I.I.1XyX].].<X].Y.#X0X0X<X#X!.wX<XA.A.!.Z.f.f.f.f.t.r.iXiXiXiXiXiXiX",
"iXiXiXZ.|.$X*X*Xd.L.).].[.!.W.H.Q.W.].{.!.[.^.U.!.$X1X].[.W.A.oX#XS.g.N.B.u.l.M.p.g.r.iXiXiXiXiXiXiX",
"iXiXiXZ.$X0.( ( a r u N C m.[.D.W.R.).`. X-X-XQ.W.J.H.^.W.W.B.B.C.C.g.4.%.l y e J g.y.iXiXiXiXiXiXiX",
"iXiXiXiX6Xv.F E E F ! R R k.s.g.D.9.u N Z K @.).>X>X>X>X;XJ.Y.W.C.g.,.6 1 1 > ; J N.iXiXiXiXiXiXiXiX",
"iXiXiXiXqXx.t k k z z A F z.6.t.N.9.T Q T M d <.m.XX3XrXtX6XW.a.:.V 4 1 , 2 2 : N N.iXiXiXiXiXiXiXiX",
"iXiXiXiX@X<.x x p i i 9 9 =.u.r.h.0.k v b F E E ^ / o.x.tXqXH.a.N 2 4 4 5 , > ; 7 y.iXiXiXiXiXiXiXiX",
"iXiXiXiXV.| A D D G G ! U ~ <.3.9.=.r i t t t t j 0 0 A 3X8XF.p.N 2 4 , > , , 4 6 >.iXiXiXiXiXiXiXiX",
"iXiXiXiXC.I t j l z A A D D { {  .^ Q T Y d f p i q 6 l 2X8XF.p.y ; : 4 5 8 5 2 4 5.iXiXiXiXiXiXiXiX",
"iXiXiXiXF.2._ M d p t t t j k z A A D { }  .^ / ] ' _ ' *X7XF.y.r 5 9 9 5 3 2 , e r.iXiXiXiXiXiXiXiX",
"iXiXiXiXG.;.F W W Q Q _ Y d p t t t k z z A S D } | X.X.k.;XN.| 9 8 4 2 2 1 4 3 u r.iXiXiXiXiXiXiXiX",
"iXiXiXiXW.9.l z z A S S W ^ / Q _ Y d s p t t j j l z A H M.N.e : : , , 5 6 9 5 B s.iXiXiXiXiXiXiXiX",
"iXiXiXiX^.2X/ m d p t j z z v A D G W / ] _ Y d p p t t t 7.V.7 ; , 4 9 9 8 5 4 #.h.iXiXiXiXiXiXiXiX",
"iXiXiXiXY.@XI A G E R d p i t t j l z A A D G G W ! R Y M w.V.e 4 5 9 5 3 4 4 6 =.N.iXiXiXiXiXiXiXiX",
"iXiXiXiXV.[.1.~ j k A S G G U n p i q 9 t j k z z A S G G k.V.r 2 3 , : , 6 6 7 -.g.iXiXiXiXiXiXiXiX",
"iXiXiXiXiXW.-X9Xv.V e r t z A A S F F U d i r q 9 t t k l d.N.u ; ; - , 4 4 q -.h.t.iXiXiXiXiXiXiXiX",
"iXiXiXiXiXiXiX=X=XK.N.6.@.V r 9 t j z A S S F U n i q 8 J ^.V.:.> - , , ; 1 0.B.f.iXiXiXiXiXiXiXiXiX",
"iXiXiXiXiXiXiXiXiXiXiXiXJ.K.M.:.@.N 9 9 9 j z A A S F U 0.>XQ.y.4 ; B &.C *.u.iXiXiXiXiXiXiXiXiXiXiX",
"iXiXiXiXiXiXiXiXiXiXiXiXiXiXiXiXJ.K.7.-.K y 5 5 9 t j k 0.8X~.y.7 r y.g.h.iXiXiXiXiXiXiXiXiXiXiXiXiX",
"iXiXiXiXiXiXiXiXiXiXiXiXiXiXiXiXiXiXI.A.Q.M.7.+.-.6.+.V 1.eX|.p.*.p.H.!.W.iXiXiXiXiXiXiXiXiXiXiXiXiX",
"iXiXiXiXiXiXiXiXiXiXiXiXiXiXiXiXiX^.B.j.].~.D.H.G.=X:X9X7XtX-XU.B.g.R.eXqXiXiXiXiXiXiXiXiXiXiXiXiXiX",
"iXiXiXiXiXiXiXiXiXiXiXiXiXiXiXiXiX8X|.U.].].A.j.H.G.Q.-X8XqX=X!.g.iXiX4XyXiXiXiXiXiXiXiXiXiXiXiXiXiX",
"iXiXiXiXiXiXiXiXiXiXiXiXiXiXiXiXiXyX1XW.W.~.^.l.iXiXiXiXiXJ.F.iXiXiXiXiXiXiXiXiXiXiXiXiXiXiXiXiXiXiX",
"iXiXiXiXiXiXiXiXiXiXiXiXiXiXiXiXiXiXiXiXiXiXiXiXiXiXiXiXiXiXiXiXiXiXiXiXiXiXiXiXiXiXiXiXiXiXiXiXiXiX",
"iXiXiXiXiXiXiXiXiXiXiXiXiXiXiXiXiXiXiXiXiXiXiXiXiXiXiXiXiXiXiXiXiXiXiXiXiXiXiXiXiXiXiXiXiXiXiXiXiXiX"
};
